<?xml version="1.0" standalone="no"?><!DOCTYPE svg PUBLIC "-//W3C//DTD SVG 1.1//EN" "http://www.w3.org/Graphics/SVG/1.1/DTD/svg11.dtd"><svg t="1620053316034" class="icon" viewBox="0 0 1024 1024" version="1.1" xmlns="http://www.w3.org/2000/svg" p-id="1280" xmlns:xlink="http://www.w3.org/1999/xlink" width="200" height="200"><path d="M634.176 681.408c48.96 0 92.352 30.464 109.44 75.648l3.008 9.28h149.824a32 32 0 0 1 5.76 63.488l-5.76 0.512h-149.824a116.864 116.864 0 0 1-221.824 9.216l-3.072-9.216H126.336a32 32 0 0 1-5.76-63.488l5.76-0.512h395.392a116.864 116.864 0 0 1 112.448-84.928z m-37.504 79.36a52.928 52.928 0 1 0 74.88 74.88 52.928 52.928 0 0 0-74.88-74.88zM325.632 394.624c48.96 0 92.416 30.464 109.44 75.712l3.008 9.216h458.368a32 32 0 0 1 5.76 63.488l-5.76 0.512H438.08a116.864 116.864 0 0 1-221.824 9.216l-3.072-9.216h-87.04a32 32 0 0 1-5.76-63.488l5.76-0.512h87.04a116.864 116.864 0 0 1 112.448-84.928z m-37.504 79.488a52.928 52.928 0 1 0 74.88 74.88 52.928 52.928 0 0 0-74.88-74.88zM722.432 108.8c48.64 0 91.776 30.08 109.056 74.88l3.072 9.088h61.888a32 32 0 0 1 5.76 63.488l-5.696 0.512h-61.44a116.864 116.864 0 0 1-222.272 9.344l-3.008-9.344H126.336a32 32 0 0 1-5.76-63.488l5.76-0.512h483.904A116.864 116.864 0 0 1 722.432 108.8z m0 64.064a52.864 52.864 0 0 0-6.656 105.344l6.592 0.448a52.992 52.992 0 0 0 0-105.792z" fill="#1B2034" p-id="1281"></path></svg>