<?xml version="1.0" standalone="no"?><!DOCTYPE svg PUBLIC "-//W3C//DTD SVG 1.1//EN" "http://www.w3.org/Graphics/SVG/1.1/DTD/svg11.dtd"><svg t="1619683737757" class="icon" viewBox="0 0 1024 1024" version="1.1" xmlns="http://www.w3.org/2000/svg" p-id="3727" xmlns:xlink="http://www.w3.org/1999/xlink" width="200" height="200"><defs><style type="text/css"></style></defs><path d="M515.541333 141.824l355.413334 124.373333c21.376 7.509333 35.712 27.690667 35.712 50.346667V810.666667c0 29.44-23.893333 53.333333-53.333334 53.333333H170.666667c-29.44 0-53.333333-23.893333-53.333334-53.333333V316.544c0-22.656 14.336-42.837333 35.712-50.346667l355.413334-124.373333a10.666667 10.666667 0 0 1 7.082666 0z" fill="#E7ECFE" p-id="3728"></path><path d="M487.338667 81.408a74.666667 74.666667 0 0 1 49.322666 0l355.413334 124.373333A117.333333 117.333333 0 0 1 970.666667 316.586667V810.666667A117.333333 117.333333 0 0 1 853.333333 928H170.666667A117.333333 117.333333 0 0 1 53.333333 810.666667V316.544a117.333333 117.333333 0 0 1 78.592-110.762667z m28.16 60.416a10.666667 10.666667 0 0 0-7.04 0l-355.413334 124.373333a53.333333 53.333333 0 0 0-35.712 50.346667V810.666667c0 29.44 23.893333 53.333333 53.333334 53.333333h682.666666c29.44 0 53.333333-23.893333 53.333334-53.333333V316.544a53.333333 53.333333 0 0 0-35.712-50.346667zM640 618.666667a21.333333 21.333333 0 0 1 3.84 42.325333L640 661.333333H384a21.333333 21.333333 0 0 1-3.84-42.325333L384 618.666667h256z" fill="#1649FB" p-id="3729"></path></svg>