<?xml version="1.0" standalone="no"?><!DOCTYPE svg PUBLIC "-//W3C//DTD SVG 1.1//EN" "http://www.w3.org/Graphics/SVG/1.1/DTD/svg11.dtd"><svg class="icon" width="200px" height="200.00px" viewBox="0 0 1024 1024" version="1.1" xmlns="http://www.w3.org/2000/svg"><path d="M922.230154 801.595077a25.284923 25.284923 0 0 1 4.332308-23.630769C987.844923 701.282462 1024 606.916923 1024 504.910769 1024 247.886769 794.702769 39.384615 511.881846 39.384615 229.100308 39.384615 0 247.729231 0 504.832S229.297231 970.436923 512.118154 970.436923c103.817846 0 200.467692-28.120615 281.206154-76.484923a30.838154 30.838154 0 0 1 22.173538-3.938462l126.621539 25.875693a11.618462 11.618462 0 0 0 13.390769-15.084308l-33.28-99.170461z" fill="#D1D3D8" /><path d="M238.946462 312.438154m51.2 0l443.746461 0q51.2 0 51.2 51.2l0 0q0 51.2-51.2 51.2l-443.746461 0q-51.2 0-51.2-51.2l0 0q0-51.2 51.2-51.2Z" fill="#FFFFFF" /><path d="M238.946462 551.384615m51.2 0l170.653538 0q51.2 0 51.2 51.2l0 0q0 51.2-51.2 51.2l-170.653538 0q-51.2 0-51.2-51.2l0 0q0-51.2 51.2-51.2Z" fill="#FFFFFF" /></svg>