<?xml version="1.0" standalone="no"?><!DOCTYPE svg PUBLIC "-//W3C//DTD SVG 1.1//EN" "http://www.w3.org/Graphics/SVG/1.1/DTD/svg11.dtd"><svg t="1619683759831" class="icon" viewBox="0 0 1024 1024" version="1.1" xmlns="http://www.w3.org/2000/svg" p-id="4440" xmlns:xlink="http://www.w3.org/1999/xlink" width="200" height="200"><defs><style type="text/css"></style></defs><path d="M788.772571 116.224l5.12 4.169143 146.285715 146.285714a36.571429 36.571429 0 0 1-46.665143 55.954286l-5.12-4.169143L804.571429 234.496V804.571429a109.714286 109.714286 0 0 1-99.181715 109.202285L694.857143 914.285714h-73.142857a36.571429 36.571429 0 0 1-6.582857-72.557714l6.582857-0.585143h73.142857a36.571429 36.571429 0 0 0 35.986286-29.988571L731.428571 804.571429V234.496L647.606857 318.464a36.571429 36.571429 0 0 1-46.665143 4.169143l-5.12-4.169143a36.571429 36.571429 0 0 1-4.169143-46.665143l4.169143-5.12 146.285715-146.285714a36.571429 36.571429 0 0 1 46.665142-4.169143zM402.285714 109.714286a36.571429 36.571429 0 0 1 6.582857 72.557714L402.285714 182.857143h-73.142857a36.571429 36.571429 0 0 0-35.986286 29.988571L292.571429 219.428571v570.002286l83.821714-83.894857a36.571429 36.571429 0 0 1 46.665143-4.169143l5.12 4.169143a36.571429 36.571429 0 0 1 4.169143 46.665143l-4.169143 5.12-146.285715 146.285714a36.571429 36.571429 0 0 1-46.665142 4.169143l-5.12-4.169143-146.285715-146.285714a36.571429 36.571429 0 0 1 46.665143-55.954286l5.12 4.169143L219.428571 789.430857V219.428571a109.714286 109.714286 0 0 1 99.181715-109.202285L329.142857 109.714286h73.142857z" fill="#FFFFFF" p-id="4441"></path></svg>