<?xml version="1.0" standalone="no"?><!DOCTYPE svg PUBLIC "-//W3C//DTD SVG 1.1//EN" "http://www.w3.org/Graphics/SVG/1.1/DTD/svg11.dtd"><svg t="1619683764104" class="icon" viewBox="0 0 1024 1024" version="1.1" xmlns="http://www.w3.org/2000/svg" p-id="4582" xmlns:xlink="http://www.w3.org/1999/xlink" width="200" height="200"><defs><style type="text/css"></style></defs><path d="M679.058286 262.509714l5.12 4.169143 219.428571 219.428572 0.804572 0.950857a36.790857 36.790857 0 0 1 2.413714 2.852571l-3.218286-3.803428A36.717714 36.717714 0 0 1 914.285714 512v1.462857a36.790857 36.790857 0 0 1-0.365714 3.803429L914.285714 512a36.717714 36.717714 0 0 1-6.509714 20.772571l-0.950857 1.316572a36.790857 36.790857 0 0 1-2.413714 2.925714l-0.804572 0.877714-219.428571 219.428572a36.571429 36.571429 0 0 1-55.954286-46.665143l4.169143-5.12L789.430857 548.571429H146.285714a36.571429 36.571429 0 0 1-6.582857-72.557715L146.285714 475.428571h643.145143L632.393143 318.464a36.571429 36.571429 0 0 1-4.169143-46.665143l4.169143-5.12a36.571429 36.571429 0 0 1 46.665143-4.169143z" fill="#FFFFFF" p-id="4583"></path></svg>