<?xml version="1.0" standalone="no"?><!DOCTYPE svg PUBLIC "-//W3C//DTD SVG 1.1//EN" "http://www.w3.org/Graphics/SVG/1.1/DTD/svg11.dtd"><svg t="1619683794023" class="icon" viewBox="0 0 1024 1024" version="1.1" xmlns="http://www.w3.org/2000/svg" p-id="5718" xmlns:xlink="http://www.w3.org/1999/xlink" width="200" height="200"><defs><style type="text/css"></style></defs><path d="M376.685714 742.985143a36.571429 36.571429 0 0 1-26.331428 44.470857 326.363429 326.363429 0 0 0-30.354286 9.362286l-24.649143 9.654857 18.066286 7.533714c5.12 2.048 11.190857 4.242286 18.285714 6.582857l9.362286 2.779429c44.178286 12.726857 105.325714 20.114286 170.934857 20.114286 65.609143 0 126.756571-7.387429 170.934857-20.114286 23.04-6.582857 37.595429-13.750857 44.251429-16.310857l1.462857-0.585143-25.307429-9.874286a324.022857 324.022857 0 0 0-19.675428-6.363428l-9.947429-2.779429a36.571429 36.571429 0 0 1 11.702857-71.899429l6.436572 1.097143c69.412571 17.773714 112.713143 44.982857 112.713143 90.038857 0 72.923429-129.170286 109.933714-292.571429 109.933715s-292.571429-37.010286-292.571429-109.933715c0-45.056 43.373714-72.265143 112.786286-90.038857a36.571429 36.571429 0 0 1 44.544 26.331429zM514.486857 107.52c155.282286 1.170286 280.722286 127.853714 279.552 281.965714 0 66.852571-25.088 132.608-69.339428 182.784l-210.212572 209.042286-215.04-211.456a284.086857 284.086857 0 0 1-66.925714-198.290286c8.338286-138.605714 123.026286-255.707429 261.632-264.045714h20.333714z m-1.901714 171.885714A110.445714 110.445714 0 0 0 402.285714 388.534857c0 59.977143 49.225143 110.153143 109.202286 110.153143 61.001143 0 110.226286-49.152 110.226286-109.202286A110.445714 110.445714 0 0 0 512.512 279.405714z" fill="#1649FB" p-id="5719"></path></svg>