<?xml version="1.0" encoding="UTF-8"?>
<svg width="200px" height="200px" viewBox="0 0 200 200" version="1.1" xmlns="http://www.w3.org/2000/svg" xmlns:xlink="http://www.w3.org/1999/xlink">
    <!-- Generator: Sketch 64 (93537) - https://sketch.com -->
    <title>logo</title>
    <desc>Created with Sketch.</desc>
    <g id="logo" stroke="none" stroke-width="1" fill="none" fill-rule="evenodd">
        <g>
            <rect id="矩形" fill="#1649FB" x="0" y="0" width="200" height="200" rx="60"></rect>
            <path d="M115.111281,64.5 C120.819126,64.5 126.275067,66.8468661 130.195757,70.9885673 L146.32258,88.0231875 L140.064108,79.2284385 L153.506812,80.7800767 C155.221548,80.9780019 156.741669,81.9735584 157.606543,83.46507 L159.816007,87.2753848 C160.19387,87.9270238 159.971099,88.7611183 159.318435,89.1383871 C159.240546,89.1834102 159.15839,89.2206349 159.073165,89.2495178 L150.298166,92.2232813 L152.153817,94.1844163 C153.818286,95.9427125 154.440113,98.4422995 153.793078,100.773829 L153.175966,102.988656 L136.27119,102.990319 C131.745844,102.990319 127.397795,104.703332 124.096283,107.769043 L123.609014,108.238999 C123.033287,108.815698 122.710005,109.596745 122.710005,110.410995 C122.710005,112.010248 123.932112,113.32451 125.494756,113.473595 L125.791527,113.487679 L144.934776,113.487679 C146.977004,113.487679 148.891553,112.530983 150.116242,110.920017 L150.367911,110.564906 L151.587065,108.713031 L146.489132,127.092899 C145.110468,132.060783 140.581624,135.5 135.418459,135.5 L131.46599,135.5 C128.647645,135.5 126.010291,134.154486 124.357673,131.899391 L124.076421,131.492079 C122.452201,128.992624 119.670982,127.484159 116.686851,127.484159 L83.3131485,127.484159 C80.4948035,127.484159 77.8574496,128.829673 76.204832,131.084768 L75.9235793,131.492079 C74.3895942,133.852676 71.8235936,135.329334 69.0293228,135.486121 L68.5340101,135.5 L64.5815415,135.5 C59.590482,135.5 55.1921602,132.286243 53.6591422,127.584521 L53.5108684,127.092899 L48.4107126,108.713031 L49.6320892,110.564906 L49.8837585,110.920017 C51.0209692,112.415914 52.7530086,113.34767 54.6297625,113.473146 L55.0652235,113.487679 L74.2084727,113.487679 L74.5052439,113.473595 C76.0678878,113.32451 77.289995,112.010248 77.289995,110.410995 C77.289995,109.596745 76.9667125,108.815698 76.3909855,108.238999 C73.1963013,105.03892 68.9116163,103.173522 64.4061737,103.003122 L63.7288103,102.990319 L46.8218115,102.988656 L46.2069221,100.773829 C45.6003266,98.5880201 46.1089422,96.2545044 47.546369,94.5225618 L47.8461832,94.1844163 L49.6996115,92.2232813 L40.926835,89.2495178 C40.8842225,89.2350763 40.8423773,89.2185494 40.801449,89.200005 L40.6815651,89.1383871 C40.0941677,88.7988452 39.8549836,88.0892745 40.0884822,87.4757109 L40.1839925,87.2753848 L42.3934573,83.46507 C43.1918026,82.08829 44.5484643,81.1340991 46.1011437,80.8397736 L46.4931876,80.7800767 L59.9358916,79.2284385 L53.6751977,88.0231875 L69.804243,70.9885673 C73.5615705,67.0194369 78.7288779,64.6986882 84.1766434,64.5121833 L84.8887192,64.5 L115.111281,64.5 Z M113.493229,71.5691927 L86.5067709,71.5691927 L85.8237915,71.581946 C81.2811741,71.7516845 76.9642665,73.6096768 73.7217597,76.7906473 L73.2435478,77.2776696 L65.4715654,85.4947196 L72.1795657,84.4612497 L74.2295291,84.1573138 C91.2958785,81.7258264 108.621241,81.721936 125.688419,84.1456427 L127.820434,84.4612497 L134.528435,85.4947196 L126.756452,77.2776696 L126.27824,76.7906473 C123.035733,73.6096768 118.718826,71.7516845 114.176208,71.581946 L113.493229,71.5691927 Z" id="形状" fill="#FFFFFF"></path>
        </g>
    </g>
</svg>